<?xml version="1.0" encoding="utf-8"?>
<!-- Generator: Adobe Illustrator 12.0.0, SVG Export Plug-In . SVG Version: 6.00 Build 51448)  -->
<!DOCTYPE svg PUBLIC "-//W3C//DTD SVG 1.1//EN" "http://www.w3.org/Graphics/SVG/1.1/DTD/svg11.dtd" [
	<!ENTITY ns_svg "http://www.w3.org/2000/svg">
	<!ENTITY ns_xlink "http://www.w3.org/1999/xlink">
]>
<svg  version="1.1" id="Layer_1" xmlns="&ns_svg;" xmlns:xlink="&ns_xlink;" width="792" height="451" viewBox="0 0 792 451"
	 overflow="visible" enable-background="new 0 0 792 451" xml:space="preserve">
<rect fill="#FFFFFF" width="792" height="451"/>
<g>
	<path fill="#F08231" d="M95.952,328.711c17.018,0,27.027,12.708,27.027,29.03c0,15.861-10.009,28.569-27.027,28.569
		c-17.016,0-27.025-12.708-27.025-28.569C68.927,341.419,78.936,328.711,95.952,328.711z M95.952,376.144
		c10.858,0,14.94-9.238,14.94-18.402c0-9.625-4.082-18.863-14.94-18.863c-10.854,0-14.937,9.238-14.937,18.863
		C81.015,366.905,85.097,376.144,95.952,376.144z"/>
	<path fill="#F08231" d="M128.138,345.189h10.397v5.081h0.152c2.62-4.232,6.931-6.155,11.859-6.155
		c12.474,0,18.097,10.087,18.097,21.403c0,10.625-5.852,20.561-17.482,20.561c-4.771,0-9.316-2.077-11.934-6.01h-0.154v18.943
		h-10.936V345.189z M157.705,365.213c0-6.316-2.54-12.858-9.545-12.858c-7.163,0-9.473,6.387-9.473,12.858
		c0,6.467,2.466,12.628,9.551,12.628C155.396,377.841,157.705,371.68,157.705,365.213z"/>
	<path fill="#F08231" d="M183.811,367.753c0.307,6.93,3.695,10.088,9.777,10.088c4.391,0,7.931-2.697,8.624-5.162h9.625
		c-3.077,9.395-9.625,13.4-18.632,13.4c-12.554,0-20.331-8.625-20.331-20.947c0-11.934,8.24-21.017,20.331-21.017
		c13.552,0,20.096,11.392,19.324,23.638H183.811z M201.596,360.825c-1.001-5.549-3.386-8.471-8.701-8.471
		c-6.93,0-8.933,5.387-9.084,8.471H201.596z"/>
	<path fill="#F08231" d="M217.073,345.189h10.395v5.543h0.231c2.771-4.464,7.544-6.617,12.165-6.617
		c11.626,0,14.553,6.542,14.553,16.397V385h-10.936v-22.483c0-6.547-1.922-9.781-7.007-9.781c-5.926,0-8.47,3.314-8.47,11.398V385
		h-10.932V345.189z"/>
	<path fill="#F08231" d="M288.144,366.749c0,7.315,5.698,10.168,12.165,10.168c4.236,0,10.703-1.236,10.703-6.854
		c0-5.93-8.24-6.93-16.323-9.088c-8.163-2.154-16.401-5.312-16.401-15.631c0-11.241,10.626-16.634,20.557-16.634
		c11.473,0,22.021,5.006,22.021,17.714h-11.702c-0.385-6.623-5.082-8.32-10.858-8.32c-3.849,0-8.314,1.617-8.314,6.242
		c0,4.232,2.618,4.77,16.401,8.314c4.004,0.998,16.321,3.539,16.321,16.016c0,10.088-7.929,17.634-22.868,17.634
		c-12.165,0-23.562-6.005-23.406-19.562H288.144z"/>
	<path fill="#F08231" d="M355.441,359.202c-0.694-4.463-3.543-6.848-8.086-6.848c-7.007,0-9.316,7.079-9.316,12.934
		c0,5.699,2.231,12.553,9.084,12.553c5.082,0,8.009-3.234,8.701-8.09h10.549c-1.387,10.555-8.701,16.328-19.172,16.328
		c-12.011,0-20.098-8.47-20.098-20.404c0-12.396,7.392-21.56,20.329-21.56c9.394,0,18.017,4.925,18.709,15.087H355.441z"/>
	<path fill="#F08231" d="M383.389,339.028h-10.932v-9.007h10.932V339.028z M372.457,345.189h10.932V385h-10.932V345.189z"/>
	<path fill="#F08231" d="M399.097,367.753c0.308,6.93,3.697,10.088,9.777,10.088c4.39,0,7.933-2.697,8.627-5.162h9.625
		c-3.077,9.395-9.625,13.4-18.632,13.4c-12.554,0-20.331-8.625-20.331-20.947c0-11.934,8.24-21.017,20.331-21.017
		c13.55,0,20.093,11.392,19.324,23.638H399.097z M416.883,360.825c-0.998-5.549-3.385-8.471-8.701-8.471
		c-6.93,0-8.93,5.387-9.085,8.471H416.883z"/>
	<path fill="#F08231" d="M432.361,345.189h10.394v5.543h0.231c2.771-4.464,7.546-6.617,12.165-6.617
		c11.628,0,14.557,6.542,14.557,16.397V385h-10.936v-22.483c0-6.547-1.924-9.781-7.009-9.781c-5.93,0-8.472,3.314-8.472,11.398V385
		h-10.931V345.189z"/>
	<path fill="#F08231" d="M503.202,359.202c-0.692-4.463-3.545-6.848-8.09-6.848c-7.004,0-9.312,7.079-9.312,12.934
		c0,5.699,2.229,12.553,9.081,12.553c5.082,0,8.009-3.234,8.703-8.09h10.547c-1.385,10.555-8.699,16.328-19.169,16.328
		c-12.015,0-20.098-8.47-20.098-20.404c0-12.396,7.391-21.56,20.329-21.56c9.394,0,18.016,4.925,18.708,15.087H503.202z"/>
	<path fill="#F08231" d="M527.377,367.753c0.306,6.93,3.695,10.088,9.78,10.088c4.388,0,7.928-2.697,8.622-5.162h9.625
		c-3.079,9.395-9.625,13.4-18.634,13.4c-12.552,0-20.329-8.625-20.329-20.947c0-11.934,8.24-21.017,20.329-21.017
		c13.552,0,20.1,11.392,19.326,23.638H527.377z M545.166,360.825c-1.005-5.549-3.39-8.471-8.701-8.471
		c-6.935,0-8.933,5.387-9.088,8.471H545.166z"/>
	<path fill="#F08231" d="M621.006,378.765c-4.232,5.467-9.775,7.546-15.087,7.546c-17.022,0-27.027-12.708-27.027-28.569
		c0-16.322,10.005-29.03,27.027-29.03c11.241,0,21.864,6.935,23.177,19.405h-11.554c-1.387-6.08-5.93-9.238-11.623-9.238
		c-10.861,0-14.943,9.238-14.943,18.863c0,9.164,4.082,18.402,14.943,18.402c7.852,0,12.396-4.232,13.089-11.854h-12.165v-9.013
		h23.096V385h-7.698L621.006,378.765z"/>
	<path fill="#F08231" d="M636.635,345.189h10.398v7.396h0.152c2.003-5.006,7.396-8.47,12.707-8.47c0.769,0,1.692,0.15,2.385,0.382
		v10.167c-0.998-0.231-2.616-0.387-3.927-0.387c-8.009,0-10.778,5.774-10.778,12.783V385h-10.938V345.189z"/>
	<path fill="#F08231" d="M675.908,339.028h-10.934v-9.007h10.934V339.028z M664.975,345.189h10.934V385h-10.934V345.189z"/>
	<path fill="#F08231" d="M712.561,379.919h-0.155c-2.54,4.312-7.009,6.16-12.091,6.16c-12.008,0-17.863-10.317-17.863-21.328
		c0-10.705,5.93-20.636,17.634-20.636c4.698,0,9.319,1.998,11.859,5.925h-0.076h0.15v-20.019h10.936V385h-10.394V379.919z
		 M703.012,352.354c-7.159,0-9.625,6.155-9.625,12.703c0,6.235,2.846,12.783,9.625,12.783c7.235,0,9.394-6.316,9.394-12.859
		C712.405,358.51,710.097,352.354,703.012,352.354z"/>
</g>
<path fill="#F08231" d="M297.218,146.335L65.995,221.644l231.223,75.313l231.216-75.313L297.218,146.335z M104.25,219.044
	l192.968-62.85l192.959,62.85l-192.959,62.853L104.25,219.044z"/>
<path fill="#F1A42B" d="M297.218,106.171L65.995,181.483l231.223,75.314l231.216-75.314L297.218,106.171z M104.25,178.879
	l192.968-62.847l192.959,62.847l-192.959,62.853L104.25,178.879z"/>
<path fill="#FDCB26" d="M297.218,66.011L65.995,141.319l231.223,75.312l231.216-75.312L297.218,66.011z M104.25,138.722
	l192.968-62.85l192.959,62.85l-192.959,62.839L104.25,138.722z"/>
</svg>
